<svg viewBox="0 0 268.57 84.31" xmlns="http://www.w3.org/2000/svg"><g fill="#fff"><path d="m141.7 63.13-15.31-22.92h-4.42v27.15h3.74v-21.64l14.45 21.64h3.08l14.45-21.64v21.64h3.74v-27.15h-4.41z"/><path d="m165.8 39.28h3.56v5.22h-3.56z"/><path d="m165.76 47.49h3.6v19.87h-3.6z"/><path d="m185.53 47.45c-4.57 0-7.32 1.53-8.9 3v-2.96h-3.63v19.87h3.67v-11c0-4.49 4.76-6.08 8.83-6.08 6.37 0 7.67 2.21 7.67 5.54v11.54h3.67v-11.56c-.04-3.58-1.21-8.35-11.31-8.35z"/><path d="m219 47.49h-9.25c-4.13 0-11.06 1.29-11.06 9.93 0 6.23 4.24 9.94 11.34 9.94h12.57v-28.08h-3.6zm-16.67 9.93c0-4.71 2.6-7.09 7.74-7.09h8.93v14.15h-9.25c-2.75 0-7.4-.91-7.4-7.06z"/><path d="m251.83 58.18c-.12-6.62-5.26-10.73-13.43-10.73-10.78 0-13.65 6.18-13.65 9.83 0 6.24 5.2 10.12 13.58 10.12 6.76 0 10.91-2.35 13-7.39l.15-.35h-3.68l-.07.11c-.16.25-.29.47-.41.69a6.3 6.3 0 0 1 -.63 1 5.61 5.61 0 0 1 -1.42 1.45c-1.06.74-2.92 1.72-6.73 1.72-5.8 0-9.54-2.31-10.09-6.2h23.34zm-23.22-2.48c1.16-3.56 4.53-5.52 9.53-5.52s8.57 2 9.55 5.52z"/><path d="m268.27 47.57a7.76 7.76 0 0 0 -2.25-.34c-3.84 0-6.66 1-8.39 2.9v-2.64h-3.63v19.87h3.6v-10.69c0-2.94 2-6.38 7.78-6.38a7.75 7.75 0 0 1 2.74.42l.32.1v-3.2z"/></g><path d="m61.52 1.21h-55.47a6 6 0 0 0 -6 6v59.1a3 3 0 0 0 6 0v-46.24h-.05v-12.88h55.52a9 9 0 0 1 9 9v.16a9 9 0 0 1 -9 9h-32.27a2.94 2.94 0 0 0 -3 3 3 3 0 0 0 3 3h32.27a15 15 0 0 0 15-14.92v-.16a15 15 0 0 0 -15-15.06z" fill="#00feff"/><path d="m96.67 69.48a3 3 0 0 1 -3-3l-.06-51.23-27.22 52.45a3 3 0 0 1 -4.34 1.1l-29.8-20.08v17.76a3 3 0 0 1 -3 3 3 3 0 0 1 -3-3v-23.4a3 3 0 0 1 4.68-2.49l31.68 21.41 31.33-60.38a3 3 0 0 1 5.66 1.38l.07 63.48a3 3 0 0 1 -3 3z" fill="#fff"/><path d="m96.67 84.31h-93.67a3 3 0 0 1 0-6h93.67a3 3 0 1 1 0 6z" fill="#00feff"/><g fill="#fff"><path d="m158.35 13c0 6.29-6.25 11.77-14.69 11.77h-12v6.34h-9.77v-29.9h21.78c8.43 0 14.68 5.53 14.68 11.79zm-9.73 0a4.74 4.74 0 0 0 -5-4.34h-12v8.63h12a4.71 4.71 0 0 0 5-4.29z"/><path d="m158.64 19.33c0-6.29 6.29-11.78 14.73-11.78h21.73v23.6h-21.73c-8.44 0-14.73-5.53-14.73-11.82zm9.77 0a4.7 4.7 0 0 0 5 4.34h12v-8.67h-12a4.67 4.67 0 0 0 -5 4.33z"/><path d="m206.93 19.33a4.71 4.71 0 0 0 5 4.34h21.74v7.48h-21.78c-8.44 0-14.73-5.53-14.73-11.82s6.29-11.78 14.73-11.78h21.74v7.45h-21.74a4.67 4.67 0 0 0 -4.96 4.33z"/><path d="m237.97 1.07h9.87v30.13h-9.87z"/><path d="m253.25 16.65 14 14.94a.79.79 0 0 0 1.36-.54v-29.89a.78.78 0 0 0 -1.36-.53l-14 14.94a.8.8 0 0 0 0 1.08z"/></g></svg>