<?xml version="1.0" encoding="UTF-8"?>
<svg width="72px" height="37px" viewBox="0 0 72 37" version="1.1" xmlns="http://www.w3.org/2000/svg" xmlns:xlink="http://www.w3.org/1999/xlink">
    <!-- Generator: Sketch 51.3 (57544) - http://www.bohemiancoding.com/sketch -->
    <title>bw_logo_reversed</title>
    <desc>Created with Sketch.</desc>
    <defs></defs>
    <g id="Symbols" stroke="none" stroke-width="1" fill="none" fill-rule="evenodd">
        <g id="Desktop-/-Header" transform="translate(-120.000000, -18.000000)" fill="#E1E1E3" fill-rule="nonzero">
            <g id="bw_logo_reversed" transform="translate(120.000000, 18.000000)">
                <path d="M0,19.5895834 L27.2572896,19.5895834 C31.4514382,19.5895834 34.8514674,23.1600261 34.8514674,27.5643904 L34.8514674,27.8806717 C34.8514674,32.2850359 31.4514382,35.8554786 27.2572896,35.8554786 L0,35.8554786 L0,19.5895834 Z M0,0 L27.2572896,0 C31.4514382,2.6968953e-16 34.8514674,3.57044269 34.8514674,7.97480696 L34.8514674,8.29108825 C34.8514674,10.4061386 34.0513688,12.4345619 32.6271842,13.9301283 C31.2029996,15.4256948 29.2713908,16.2658952 27.2572896,16.2658952 L0,16.2658952 L0,0 Z M52.997144,0 L52.997144,28.6234573 C52.997144,30.7385076 52.1970455,32.7669309 50.7728609,34.2624974 C49.3486763,35.7580638 47.4170674,36.5982642 45.4029663,36.5982642 L45.1017807,36.5982642 C43.0876796,36.5982642 41.1560707,35.7580638 39.7318861,34.2624974 C38.3077015,32.7669309 37.507603,30.7385076 37.507603,28.6234573 L37.507603,0 L52.997144,0 Z M71.9945014,0 L71.9945014,28.6234573 C71.9945014,33.0278215 68.5944722,36.5982642 64.4003236,36.5982642 L64.0991381,36.5982642 C59.9049895,36.5982642 56.5049603,33.0278215 56.5049603,28.6234573 L56.5049603,0 L71.9945014,0 Z"></path>
            </g>
        </g>
    </g>
</svg>