<?xml version="1.0" encoding="UTF-8"?>
<svg width="293px" height="37px" viewBox="0 0 293 37" version="1.1" xmlns="http://www.w3.org/2000/svg" xmlns:xlink="http://www.w3.org/1999/xlink">
    <!-- Generator: Sketch 51.3 (57544) - http://www.bohemiancoding.com/sketch -->
    <title>bw_logo_wordmark</title>
    <desc>Created with Sketch.</desc>
    <defs></defs>
    <g id="Symbols" stroke="none" stroke-width="1" fill="none" fill-rule="evenodd">
        <g id="Desktop-/-Header" transform="translate(-120.000000, -18.000000)" fill="#E1E1E3">
            <g id="Header">
                <g id="Logo" transform="translate(120.000000, 18.000000)">
                    <g id="bw_logo_wordmark">
                        <path d="M94.926,25.78 C95.5980034,25.78 96.1509978,25.6983342 96.585,25.535 C97.0190022,25.3716658 97.3666654,25.154668 97.628,24.884 C97.8893346,24.613332 98.0713328,24.3030017 98.174,23.953 C98.2766672,23.6029982 98.328,23.2413352 98.328,22.868 C98.328,22.4573313 98.2673339,22.0886683 98.146,21.762 C98.0246661,21.4353317 97.828668,21.1576678 97.558,20.929 C97.287332,20.7003322 96.9350022,20.5253339 96.501,20.404 C96.0669978,20.2826661 95.5326698,20.222 94.898,20.222 L91.328,20.222 L91.328,25.78 L94.926,25.78 Z M91.328,11.878 L91.328,17.366 L94.086,17.366 C94.6740029,17.366 95.1966644,17.3170005 95.654,17.219 C96.1113356,17.1209995 96.4939985,16.9646677 96.802,16.75 C97.1100015,16.5353323 97.3456659,16.2530017 97.509,15.903 C97.6723341,15.5529983 97.754,15.1306691 97.754,14.636 C97.754,14.1319975 97.686334,13.7026684 97.551,13.348 C97.415666,12.9933316 97.2080014,12.7086677 96.928,12.494 C96.6479986,12.2793323 96.2933355,12.1230005 95.864,12.025 C95.4346645,11.9269995 94.9260029,11.878 94.338,11.878 L91.328,11.878 Z M94.338,8.686 C95.7006735,8.686 96.8649952,8.81433205 97.831,9.071 C98.7970048,9.32766795 99.5856636,9.69166431 100.197,10.163 C100.808336,10.6343357 101.253999,11.2059966 101.534,11.878 C101.814001,12.5500034 101.954,13.3013292 101.954,14.132 C101.954,14.598669 101.886334,15.0466645 101.751,15.476 C101.615666,15.9053355 101.405668,16.3089981 101.121,16.687 C100.836332,17.0650019 100.470002,17.4079985 100.022,17.716 C99.5739978,18.0240015 99.0420031,18.2853323 98.426,18.5 C99.8073402,18.8266683 100.82933,19.358663 101.492,20.096 C102.15467,20.833337 102.486,21.7899941 102.486,22.966 C102.486,23.824671 102.320335,24.622663 101.989,25.36 C101.657665,26.097337 101.17467,26.736664 100.54,27.278 C99.9053302,27.819336 99.1236713,28.2416651 98.195,28.545 C97.2663287,28.8483349 96.200006,29 94.996,29 L87.128,29 L87.128,8.686 L94.338,8.686 Z M108.8,16.946 C109.257336,16.1246626 109.784664,15.4760024 110.382,15 C110.979336,14.5239976 111.679329,14.286 112.482,14.286 C113.135337,14.286 113.667331,14.4399985 114.078,14.748 L113.826,17.604 C113.779333,17.7906676 113.707,17.9189996 113.609,17.989 C113.511,18.0590004 113.378001,18.094 113.21,18.094 C113.060666,18.094 112.846001,18.0730002 112.566,18.031 C112.285999,17.9889998 112.024668,17.968 111.782,17.968 C111.427332,17.968 111.112335,18.0193328 110.837,18.122 C110.561665,18.2246672 110.316668,18.3693324 110.102,18.556 C109.887332,18.7426676 109.693668,18.971332 109.521,19.242 C109.348332,19.512668 109.187334,19.8206649 109.038,20.166 L109.038,29 L105.174,29 L105.174,14.566 L107.456,14.566 C107.848002,14.566 108.118666,14.6359993 108.268,14.776 C108.417334,14.9160007 108.524666,15.1586649 108.59,15.504 L108.8,16.946 Z M119.706,14.566 L119.706,29 L115.842,29 L115.842,14.566 L119.706,14.566 Z M120.168,10.464 C120.168,10.7906683 120.102667,11.0939986 119.972,11.374 C119.841333,11.6540014 119.666334,11.9013323 119.447,12.116 C119.227666,12.3306677 118.971001,12.4986661 118.677,12.62 C118.382999,12.7413339 118.068002,12.802 117.732,12.802 C117.414665,12.802 117.113668,12.7413339 116.829,12.62 C116.544332,12.4986661 116.294668,12.3306677 116.08,12.116 C115.865332,11.9013323 115.695001,11.6540014 115.569,11.374 C115.442999,11.0939986 115.38,10.7906683 115.38,10.464 C115.38,10.1373317 115.442999,9.83166809 115.569,9.547 C115.695001,9.26233191 115.865332,9.01266774 116.08,8.798 C116.294668,8.58333226 116.544332,8.41533394 116.829,8.294 C117.113668,8.17266606 117.414665,8.112 117.732,8.112 C118.068002,8.112 118.382999,8.17266606 118.677,8.294 C118.971001,8.41533394 119.227666,8.58333226 119.447,8.798 C119.666334,9.01266774 119.841333,9.26233191 119.972,9.547 C120.102667,9.83166809 120.168,10.1373317 120.168,10.464 Z M130.556,22.966 C129.613329,23.0126669 128.829336,23.0943327 128.204,23.211 C127.578664,23.3276672 127.081669,23.4793324 126.713,23.666 C126.344331,23.8526676 126.083001,24.0649988 125.929,24.303 C125.774999,24.5410012 125.698,24.7999986 125.698,25.08 C125.698,25.6400028 125.854332,26.0366655 126.167,26.27 C126.479668,26.5033345 126.915997,26.62 127.476,26.62 C128.120003,26.62 128.677664,26.5056678 129.149,26.277 C129.620336,26.0483322 130.089331,25.6913358 130.556,25.206 L130.556,22.966 Z M122.688,16.568 C123.537338,15.8026628 124.475328,15.2310019 125.502,14.853 C126.528672,14.4749981 127.639327,14.286 128.834,14.286 C129.692671,14.286 130.46033,14.4259986 131.137,14.706 C131.81367,14.9860014 132.387664,15.3756642 132.859,15.875 C133.330336,16.3743358 133.691999,16.9693299 133.944,17.66 C134.196001,18.3506701 134.322,19.1066626 134.322,19.928 L134.322,29 L132.558,29 C132.193998,29 131.916334,28.9486672 131.725,28.846 C131.533666,28.7433328 131.377334,28.5286683 131.256,28.202 L130.948,27.278 C130.583998,27.5953349 130.231668,27.8753321 129.891,28.118 C129.550332,28.3606679 129.198002,28.5636658 128.834,28.727 C128.469998,28.8903342 128.080335,29.0139996 127.665,29.098 C127.249665,29.1820004 126.785336,29.224 126.272,29.224 C125.63733,29.224 125.058669,29.1400008 124.536,28.972 C124.013331,28.8039992 123.563002,28.554335 123.185,28.223 C122.806998,27.891665 122.515334,27.4786691 122.31,26.984 C122.104666,26.4893309 122.002,25.9200032 122.002,25.276 C122.002,24.7439973 122.137332,24.2120027 122.408,23.68 C122.678668,23.1479973 123.142997,22.6650022 123.801,22.231 C124.459003,21.7969978 125.336328,21.4376681 126.433,21.153 C127.529672,20.8683319 128.903992,20.7073335 130.556,20.67 L130.556,19.928 C130.556,19.0226621 130.364669,18.3576688 129.982,17.933 C129.599331,17.5083312 129.04867,17.296 128.33,17.296 C127.797997,17.296 127.354668,17.3589994 127,17.485 C126.645332,17.6110006 126.335001,17.7463326 126.069,17.891 C125.802999,18.0356674 125.553335,18.1709994 125.32,18.297 C125.086665,18.4230006 124.816002,18.486 124.508,18.486 C124.237332,18.486 124.011001,18.418334 123.829,18.283 C123.646999,18.147666 123.495334,17.9866676 123.374,17.8 L122.688,16.568 Z M140.93,16.246 C141.219335,15.9659986 141.520332,15.7093345 141.833,15.476 C142.145668,15.2426655 142.476998,15.0420008 142.827,14.874 C143.177002,14.7059992 143.554998,14.5753338 143.961,14.482 C144.367002,14.3886662 144.807998,14.342 145.284,14.342 C146.068004,14.342 146.76333,14.477332 147.37,14.748 C147.97667,15.018668 148.487665,15.3966642 148.903,15.882 C149.318335,16.3673358 149.630999,16.9459966 149.841,17.618 C150.051001,18.2900034 150.156,19.0273293 150.156,19.83 L150.156,29 L146.306,29 L146.306,19.83 C146.306,19.0273293 146.119335,18.4043355 145.746,17.961 C145.372665,17.5176644 144.822004,17.296 144.094,17.296 C143.552664,17.296 143.044002,17.4126655 142.568,17.646 C142.091998,17.8793345 141.639335,18.2059979 141.21,18.626 L141.21,29 L137.346,29 L137.346,14.566 L139.726,14.566 C140.211336,14.566 140.533333,14.7899978 140.692,15.238 L140.93,16.246 Z M187.732,8.686 L181.432,29 L177.638,29 L173.48,15.714 C173.414666,15.5273324 173.349334,15.3220011 173.284,15.098 C173.218666,14.8739989 173.158,14.6360013 173.102,14.384 C173.046,14.6360013 172.985334,14.8739989 172.92,15.098 C172.854666,15.3220011 172.789334,15.5273324 172.724,15.714 L168.524,29 L164.716,29 L158.43,8.686 L161.958,8.686 C162.322002,8.686 162.627665,8.76999916 162.875,8.938 C163.122335,9.10600084 163.283333,9.3299986 163.358,9.61 L166.508,21.062 C166.582667,21.3793349 166.659666,21.7223315 166.739,22.091 C166.818334,22.4596685 166.895333,22.8493313 166.97,23.26 C167.054,22.8399979 167.142666,22.4480018 167.236,22.084 C167.329334,21.7199982 167.431999,21.3793349 167.544,21.062 L171.212,9.61 C171.286667,9.3766655 171.447665,9.16433429 171.695,8.973 C171.942335,8.78166571 172.243332,8.686 172.598,8.686 L173.83,8.686 C174.194002,8.686 174.490332,8.77233247 174.719,8.945 C174.947668,9.11766753 175.117999,9.33933198 175.23,9.61 L178.884,21.062 C178.996001,21.3606682 179.098666,21.6849982 179.192,22.035 C179.285334,22.3850018 179.374,22.755998 179.458,23.148 C179.532667,22.755998 179.605,22.3850018 179.675,22.035 C179.745,21.6849982 179.817333,21.3606682 179.892,21.062 L183.042,9.61 C183.107334,9.36733212 183.265999,9.1526676 183.518,8.966 C183.770001,8.7793324 184.073332,8.686 184.428,8.686 L187.732,8.686 Z M197.028,22.966 C196.085329,23.0126669 195.301336,23.0943327 194.676,23.211 C194.050664,23.3276672 193.553669,23.4793324 193.185,23.666 C192.816331,23.8526676 192.555001,24.0649988 192.401,24.303 C192.246999,24.5410012 192.17,24.7999986 192.17,25.08 C192.17,25.6400028 192.326332,26.0366655 192.639,26.27 C192.951668,26.5033345 193.387997,26.62 193.948,26.62 C194.592003,26.62 195.149664,26.5056678 195.621,26.277 C196.092336,26.0483322 196.561331,25.6913358 197.028,25.206 L197.028,22.966 Z M189.16,16.568 C190.009338,15.8026628 190.947328,15.2310019 191.974,14.853 C193.000672,14.4749981 194.111327,14.286 195.306,14.286 C196.164671,14.286 196.93233,14.4259986 197.609,14.706 C198.28567,14.9860014 198.859664,15.3756642 199.331,15.875 C199.802336,16.3743358 200.163999,16.9693299 200.416,17.66 C200.668001,18.3506701 200.794,19.1066626 200.794,19.928 L200.794,29 L199.03,29 C198.665998,29 198.388334,28.9486672 198.197,28.846 C198.005666,28.7433328 197.849334,28.5286683 197.728,28.202 L197.42,27.278 C197.055998,27.5953349 196.703668,27.8753321 196.363,28.118 C196.022332,28.3606679 195.670002,28.5636658 195.306,28.727 C194.941998,28.8903342 194.552335,29.0139996 194.137,29.098 C193.721665,29.1820004 193.257336,29.224 192.744,29.224 C192.10933,29.224 191.530669,29.1400008 191.008,28.972 C190.485331,28.8039992 190.035002,28.554335 189.657,28.223 C189.278998,27.891665 188.987334,27.4786691 188.782,26.984 C188.576666,26.4893309 188.474,25.9200032 188.474,25.276 C188.474,24.7439973 188.609332,24.2120027 188.88,23.68 C189.150668,23.1479973 189.614997,22.6650022 190.273,22.231 C190.931003,21.7969978 191.808328,21.4376681 192.905,21.153 C194.001672,20.8683319 195.375992,20.7073335 197.028,20.67 L197.028,19.928 C197.028,19.0226621 196.836669,18.3576688 196.454,17.933 C196.071331,17.5083312 195.52067,17.296 194.802,17.296 C194.269997,17.296 193.826668,17.3589994 193.472,17.485 C193.117332,17.6110006 192.807001,17.7463326 192.541,17.891 C192.274999,18.0356674 192.025335,18.1709994 191.792,18.297 C191.558666,18.4230006 191.288002,18.486 190.98,18.486 C190.709332,18.486 190.483001,18.418334 190.301,18.283 C190.118999,18.147666 189.967334,17.9866676 189.846,17.8 L189.16,16.568 Z M207.444,16.946 C207.901336,16.1246626 208.428664,15.4760024 209.026,15 C209.623336,14.5239976 210.323329,14.286 211.126,14.286 C211.779337,14.286 212.311331,14.4399985 212.722,14.748 L212.47,17.604 C212.423333,17.7906676 212.351,17.9189996 212.253,17.989 C212.155,18.0590004 212.022001,18.094 211.854,18.094 C211.704666,18.094 211.490001,18.0730002 211.21,18.031 C210.929999,17.9889998 210.668668,17.968 210.426,17.968 C210.071332,17.968 209.756335,18.0193328 209.481,18.122 C209.205665,18.2246672 208.960668,18.3693324 208.746,18.556 C208.531332,18.7426676 208.337668,18.971332 208.165,19.242 C207.992332,19.512668 207.831334,19.8206649 207.682,20.166 L207.682,29 L203.818,29 L203.818,14.566 L206.1,14.566 C206.492002,14.566 206.762666,14.6359993 206.912,14.776 C207.061334,14.9160007 207.168666,15.1586649 207.234,15.504 L207.444,16.946 Z M224.846,17.786 C224.733999,17.9353341 224.622001,18.0496663 224.51,18.129 C224.397999,18.2083337 224.239334,18.248 224.034,18.248 C223.847332,18.248 223.667668,18.1943339 223.495,18.087 C223.322332,17.9796661 223.124001,17.8630006 222.9,17.737 C222.675999,17.6109994 222.410002,17.4943339 222.102,17.387 C221.793998,17.2796661 221.411336,17.226 220.954,17.226 C220.37533,17.226 219.873669,17.330999 219.449,17.541 C219.024331,17.751001 218.672001,18.051998 218.392,18.444 C218.111999,18.836002 217.904334,19.3119972 217.769,19.872 C217.633666,20.4320028 217.566,21.0619965 217.566,21.762 C217.566,23.236674 217.86233,24.3659961 218.455,25.15 C219.04767,25.9340039 219.857328,26.326 220.884,26.326 C221.238668,26.326 221.544332,26.295667 221.801,26.235 C222.057668,26.174333 222.281666,26.0973338 222.473,26.004 C222.664334,25.9106662 222.829999,25.8080006 222.97,25.696 C223.110001,25.5839994 223.242999,25.4813338 223.369,25.388 C223.495001,25.2946662 223.620999,25.217667 223.747,25.157 C223.873001,25.096333 224.015333,25.066 224.174,25.066 C224.472668,25.066 224.705999,25.1779989 224.874,25.402 L225.98,26.802 C225.569331,27.2780024 225.130669,27.6723318 224.664,27.985 C224.197331,28.2976682 223.714336,28.5449991 223.215,28.727 C222.715664,28.9090009 222.209336,29.0349996 221.696,29.105 C221.182664,29.1750004 220.674003,29.21 220.17,29.21 C219.283329,29.21 218.443337,29.044335 217.65,28.713 C216.856663,28.381665 216.161336,27.8986698 215.564,27.264 C214.966664,26.6293302 214.493002,25.8500046 214.143,24.926 C213.792998,24.0019954 213.618,22.9473393 213.618,21.762 C213.618,20.7073281 213.771998,19.7273379 214.08,18.822 C214.388002,17.9166621 214.840664,17.13267 215.438,16.47 C216.035336,15.80733 216.774996,15.2870019 217.657,14.909 C218.539004,14.5309981 219.558661,14.342 220.716,14.342 C221.817339,14.342 222.783329,14.5193316 223.614,14.874 C224.444671,15.2286684 225.19133,15.7419966 225.854,16.414 L224.846,17.786 Z M231.79,15.98 C232.060668,15.7373321 232.342999,15.5156677 232.637,15.315 C232.931001,15.1143323 233.243665,14.9416674 233.575,14.797 C233.906335,14.6523326 234.260998,14.5403337 234.639,14.461 C235.017002,14.3816663 235.425331,14.342 235.864,14.342 C236.648004,14.342 237.34333,14.477332 237.95,14.748 C238.55667,15.018668 239.067665,15.3966642 239.483,15.882 C239.898335,16.3673358 240.210999,16.9459966 240.421,17.618 C240.631001,18.2900034 240.736,19.0273293 240.736,19.83 L240.736,29 L236.886,29 L236.886,19.83 C236.886,19.0273293 236.699335,18.4043355 236.326,17.961 C235.952665,17.5176644 235.402004,17.296 234.674,17.296 C234.132664,17.296 233.624002,17.4126655 233.148,17.646 C232.671998,17.8793345 232.219335,18.2059979 231.79,18.626 L231.79,29 L227.926,29 L227.926,8.126 L231.79,8.126 L231.79,15.98 Z M252.958,20.082 C252.958,19.6806647 252.904334,19.2980018 252.797,18.934 C252.689666,18.5699982 252.519335,18.2480014 252.286,17.968 C252.052665,17.6879986 251.758668,17.4663342 251.404,17.303 C251.049332,17.1396659 250.624669,17.058 250.13,17.058 C249.205995,17.058 248.482669,17.3193307 247.96,17.842 C247.437331,18.3646693 247.096667,19.1113285 246.938,20.082 L252.958,20.082 Z M246.882,22.378 C247.003334,23.7313401 247.38833,24.7206635 248.037,25.346 C248.68567,25.9713365 249.532661,26.284 250.578,26.284 C251.110003,26.284 251.569665,26.2210006 251.957,26.095 C252.344335,25.9689994 252.684999,25.8290008 252.979,25.675 C253.273001,25.5209992 253.538999,25.3810006 253.777,25.255 C254.015001,25.1289994 254.250666,25.066 254.484,25.066 C254.782668,25.066 255.015999,25.1779989 255.184,25.402 L256.304,26.802 C255.893331,27.2780024 255.440669,27.6723318 254.946,27.985 C254.451331,28.2976682 253.938003,28.5449991 253.406,28.727 C252.873997,28.9090009 252.337336,29.0349996 251.796,29.105 C251.254664,29.1750004 250.732003,29.21 250.228,29.21 C249.219995,29.21 248.279671,29.044335 247.407,28.713 C246.534329,28.381665 245.77367,27.8916699 245.125,27.243 C244.47633,26.5943301 243.965335,25.7893381 243.592,24.828 C243.218665,23.8666619 243.032,22.7513397 243.032,21.482 C243.032,20.5019951 243.192998,19.5780043 243.515,18.71 C243.837002,17.8419957 244.30133,17.0860032 244.908,16.442 C245.51467,15.7979968 246.251996,15.2870019 247.12,14.909 C247.988004,14.5309981 248.967995,14.342 250.06,14.342 C250.984005,14.342 251.835663,14.4889985 252.615,14.783 C253.394337,15.0770015 254.066331,15.5039972 254.631,16.064 C255.195669,16.6240028 255.634332,17.3123292 255.947,18.129 C256.259668,18.9456707 256.416,19.8766614 256.416,20.922 C256.416,21.2113348 256.402,21.4493324 256.374,21.636 C256.346,21.8226676 256.299334,21.9719994 256.234,22.084 C256.168666,22.1960006 256.080001,22.2729998 255.968,22.315 C255.855999,22.3570002 255.711334,22.378 255.534,22.378 L246.882,22.378 Z M267.784,17.534 C267.681333,17.6926675 267.576334,17.8069996 267.469,17.877 C267.361666,17.9470003 267.214668,17.982 267.028,17.982 C266.841332,17.982 266.650001,17.9353338 266.454,17.842 C266.257999,17.7486662 266.038668,17.6483339 265.796,17.541 C265.553332,17.4336661 265.275668,17.3333338 264.963,17.24 C264.650332,17.1466662 264.288669,17.1 263.878,17.1 C263.252664,17.1 262.767335,17.228332 262.422,17.485 C262.076665,17.741668 261.904,18.0799979 261.904,18.5 C261.904,18.7893348 262.001999,19.031999 262.198,19.228 C262.394001,19.424001 262.652998,19.5943326 262.975,19.739 C263.297002,19.8836674 263.663331,20.0189994 264.074,20.145 C264.484669,20.2710006 264.906998,20.4086659 265.341,20.558 C265.775002,20.7073341 266.197331,20.879999 266.608,21.076 C267.018669,21.272001 267.384998,21.5169985 267.707,21.811 C268.029002,22.1050015 268.287999,22.4596646 268.484,22.875 C268.680001,23.2903354 268.778,23.7919971 268.778,24.38 C268.778,25.0800035 268.649668,25.7263304 268.393,26.319 C268.136332,26.9116696 267.760669,27.4226645 267.266,27.852 C266.771331,28.2813355 266.155337,28.6173321 265.418,28.86 C264.680663,29.1026679 263.831338,29.224 262.87,29.224 C262.375331,29.224 261.885336,29.1796671 261.4,29.091 C260.914664,29.0023329 260.452669,28.8763341 260.014,28.713 C259.575331,28.5496659 259.164669,28.3606677 258.782,28.146 C258.399331,27.9313323 258.068001,27.6980013 257.788,27.446 L258.684,26.004 C258.786667,25.8359992 258.914999,25.7053338 259.069,25.612 C259.223001,25.5186662 259.421332,25.472 259.664,25.472 C259.897335,25.472 260.111999,25.5303327 260.308,25.647 C260.504001,25.7636672 260.723332,25.889666 260.966,26.025 C261.208668,26.160334 261.495665,26.2863327 261.827,26.403 C262.158335,26.5196672 262.571331,26.578 263.066,26.578 C263.439335,26.578 263.761332,26.5360004 264.032,26.452 C264.302668,26.3679996 264.521999,26.2536674 264.69,26.109 C264.858001,25.9643326 264.981666,25.8010009 265.061,25.619 C265.140334,25.4369991 265.18,25.248001 265.18,25.052 C265.18,24.7346651 265.079668,24.4756677 264.879,24.275 C264.678332,24.0743323 264.417002,23.8993341 264.095,23.75 C263.772998,23.6006659 263.402002,23.4653339 262.982,23.344 C262.561998,23.2226661 262.135002,23.0873341 261.701,22.938 C261.266998,22.7886659 260.842335,22.6113344 260.427,22.406 C260.011665,22.2006656 259.643002,21.9416682 259.321,21.629 C258.998998,21.3163318 258.737668,20.9313356 258.537,20.474 C258.336332,20.0166644 258.236,19.4613366 258.236,18.808 C258.236,18.2106637 258.352666,17.6436693 258.586,17.107 C258.819335,16.5703306 259.169331,16.0966687 259.636,15.686 C260.102669,15.2753313 260.683663,14.9486679 261.379,14.706 C262.074337,14.4633321 262.879329,14.342 263.794,14.342 C264.820672,14.342 265.753996,14.5099983 266.594,14.846 C267.434004,15.1820017 268.124664,15.620664 268.666,16.162 L267.784,17.534 Z M275.176,14.566 L275.176,29 L271.312,29 L271.312,14.566 L275.176,14.566 Z M275.638,10.464 C275.638,10.7906683 275.572667,11.0939986 275.442,11.374 C275.311333,11.6540014 275.136334,11.9013323 274.917,12.116 C274.697666,12.3306677 274.441001,12.4986661 274.147,12.62 C273.852999,12.7413339 273.538002,12.802 273.202,12.802 C272.884665,12.802 272.583668,12.7413339 272.299,12.62 C272.014332,12.4986661 271.764668,12.3306677 271.55,12.116 C271.335332,11.9013323 271.165001,11.6540014 271.039,11.374 C270.912999,11.0939986 270.85,10.7906683 270.85,10.464 C270.85,10.1373317 270.912999,9.83166809 271.039,9.547 C271.165001,9.26233191 271.335332,9.01266774 271.55,8.798 C271.764668,8.58333226 272.014332,8.41533394 272.299,8.294 C272.583668,8.17266606 272.884665,8.112 273.202,8.112 C273.538002,8.112 273.852999,8.17266606 274.147,8.294 C274.441001,8.41533394 274.697666,8.58333226 274.917,8.798 C275.136334,9.01266774 275.311333,9.26233191 275.442,9.547 C275.572667,9.83166809 275.638,10.1373317 275.638,10.464 Z M282.344,8.126 L282.344,19.97 L282.988,19.97 C283.230668,19.97 283.421999,19.9350004 283.562,19.865 C283.702001,19.7949997 283.841999,19.6666676 283.982,19.48 L287.174,15.224 C287.332667,15.0093323 287.512332,14.8460006 287.713,14.734 C287.913668,14.6219994 288.167998,14.566 288.476,14.566 L292.004,14.566 L287.86,19.83 C287.533332,20.2686689 287.155335,20.6139987 286.726,20.866 C286.940668,21.0153341 287.127333,21.187999 287.286,21.384 C287.444667,21.580001 287.598666,21.7993321 287.748,22.042 L292.214,29 L288.742,29 C288.443332,29 288.186668,28.9510005 287.972,28.853 C287.757332,28.7549995 287.580001,28.5800013 287.44,28.328 L284.192,23.022 C284.061333,22.7979989 283.926001,22.6533337 283.786,22.588 C283.645999,22.5226663 283.436001,22.49 283.156,22.49 L282.344,22.49 L282.344,29 L278.48,29 L278.48,8.126 L282.344,8.126 Z" id="Brian-Warchesik"></path>
                        <g id="bw_logo_reversed" fill-rule="nonzero">
                            <path d="M0,19.5895834 L27.2572896,19.5895834 C31.4514382,19.5895834 34.8514674,23.1600261 34.8514674,27.5643904 L34.8514674,27.8806717 C34.8514674,32.2850359 31.4514382,35.8554786 27.2572896,35.8554786 L0,35.8554786 L0,19.5895834 Z M0,0 L27.2572896,0 C31.4514382,2.6968953e-16 34.8514674,3.57044269 34.8514674,7.97480696 L34.8514674,8.29108825 C34.8514674,10.4061386 34.0513688,12.4345619 32.6271842,13.9301283 C31.2029996,15.4256948 29.2713908,16.2658952 27.2572896,16.2658952 L0,16.2658952 L0,0 Z M52.997144,0 L52.997144,28.6234573 C52.997144,30.7385076 52.1970455,32.7669309 50.7728609,34.2624974 C49.3486763,35.7580638 47.4170674,36.5982642 45.4029663,36.5982642 L45.1017807,36.5982642 C43.0876796,36.5982642 41.1560707,35.7580638 39.7318861,34.2624974 C38.3077015,32.7669309 37.507603,30.7385076 37.507603,28.6234573 L37.507603,0 L52.997144,0 Z M71.9945014,0 L71.9945014,28.6234573 C71.9945014,33.0278215 68.5944722,36.5982642 64.4003236,36.5982642 L64.0991381,36.5982642 C59.9049895,36.5982642 56.5049603,33.0278215 56.5049603,28.6234573 L56.5049603,0 L71.9945014,0 Z"></path>
                        </g>
                    </g>
                </g>
            </g>
        </g>
    </g>
</svg>