<?xml version="1.0" encoding="UTF-8"?>
<svg width="1432px" height="311px" viewBox="0 0 1432 311" version="1.1" xmlns="http://www.w3.org/2000/svg" xmlns:xlink="http://www.w3.org/1999/xlink">
    <!-- Generator: Sketch 51.3 (57544) - http://www.bohemiancoding.com/sketch -->
    <title>DESIGN</title>
    <desc>Created with Sketch.</desc>
    <defs></defs>
    <g id="Homepages" stroke="none" stroke-width="1" fill="none" fill-rule="evenodd" opacity="0.143359375">
        <g id="Desktop-BW-Homepage" transform="translate(-8.000000, -594.000000)" fill="#151419">
            <g id="landing_unit" transform="translate(-955.000000, -798.000000)">
                <path d="M1238.32119,1547.368 C1238.32119,1569.27744 1234.54256,1589.48791 1226.98519,1608 C1219.42781,1626.51209 1208.78525,1642.52793 1195.05719,1656.048 C1181.32912,1669.56807 1164.79328,1680.10663 1145.44919,1687.664 C1126.10509,1695.22137 1104.64664,1699 1081.07319,1699 L963.345185,1699 L963.345185,1395.944 L1081.07319,1395.944 C1104.64664,1395.944 1126.10509,1399.7573 1145.44919,1407.384 C1164.79328,1415.0107 1181.32912,1425.54927 1195.05719,1439 C1208.78525,1452.45073 1219.42781,1468.43191 1226.98519,1486.944 C1234.54256,1505.45609 1238.32119,1525.59722 1238.32119,1547.368 Z M1166.35319,1547.368 C1166.35319,1532.39193 1164.41187,1518.87206 1160.52919,1506.808 C1156.6465,1494.74394 1151.06522,1484.51738 1143.78519,1476.128 C1136.50515,1467.73862 1127.5959,1461.29069 1117.05719,1456.784 C1106.51847,1452.27731 1094.52392,1450.024 1081.07319,1450.024 L1034.06519,1450.024 L1034.06519,1644.92 L1081.07319,1644.92 C1094.52392,1644.92 1106.51847,1642.66669 1117.05719,1638.16 C1127.5959,1633.65331 1136.50515,1627.20538 1143.78519,1618.816 C1151.06522,1610.42662 1156.6465,1600.20006 1160.52919,1588.136 C1164.41187,1576.07194 1166.35319,1562.48274 1166.35319,1547.368 Z M1341.37279,1450.024 L1341.37279,1520.744 L1436.63679,1520.744 L1436.63679,1572.744 L1341.37279,1572.744 L1341.37279,1644.92 L1465.75679,1644.92 L1465.75679,1699 L1270.65279,1699 L1270.65279,1395.944 L1465.75679,1395.944 L1465.75679,1450.024 L1341.37279,1450.024 Z M1667.1924,1457.512 C1665.11238,1460.84002 1662.92841,1463.33599 1660.6404,1465 C1658.35238,1466.66401 1655.40575,1467.496 1651.8004,1467.496 C1648.61105,1467.496 1645.17908,1466.49068 1641.5044,1464.48 C1637.82971,1462.46932 1633.66975,1460.21601 1629.0244,1457.72 C1624.37904,1455.22399 1619.07509,1452.97068 1613.1124,1450.96 C1607.1497,1448.94932 1600.3551,1447.944 1592.7284,1447.944 C1579.555,1447.944 1569.74443,1450.75197 1563.2964,1456.368 C1556.84836,1461.98403 1553.6244,1469.57595 1553.6244,1479.144 C1553.6244,1485.24536 1555.56571,1490.30665 1559.4484,1494.328 C1563.33108,1498.34935 1568.42703,1501.81599 1574.7364,1504.728 C1581.04576,1507.64001 1588.25635,1510.30932 1596.3684,1512.736 C1604.48044,1515.16268 1612.76569,1517.86665 1621.2244,1520.848 C1629.6831,1523.82935 1637.96835,1527.33065 1646.0804,1531.352 C1654.19244,1535.37335 1661.40303,1540.50397 1667.7124,1546.744 C1674.02176,1552.98403 1679.11771,1560.57596 1683.0004,1569.52 C1686.88308,1578.46404 1688.8244,1589.24527 1688.8244,1601.864 C1688.8244,1615.8694 1686.39775,1628.97327 1681.5444,1641.176 C1676.69104,1653.37873 1669.65377,1664.02129 1660.4324,1673.104 C1651.21102,1682.18671 1639.84046,1689.32797 1626.3204,1694.528 C1612.80033,1699.72803 1597.44315,1702.328 1580.2484,1702.328 C1570.81901,1702.328 1561.21644,1701.35734 1551.4404,1699.416 C1541.66435,1697.47466 1532.20044,1694.73602 1523.0484,1691.2 C1513.89635,1687.66398 1505.2991,1683.46936 1497.2564,1678.616 C1489.21369,1673.76264 1482.21109,1668.3547 1476.2484,1662.392 L1497.0484,1629.528 C1498.7124,1627.17065 1500.89638,1625.19467 1503.6004,1623.6 C1506.30441,1622.00533 1509.25105,1621.208 1512.4404,1621.208 C1516.60042,1621.208 1520.79504,1622.52532 1525.0244,1625.16 C1529.25375,1627.79468 1534.0377,1630.70665 1539.3764,1633.896 C1544.71509,1637.08535 1550.85103,1639.99732 1557.7844,1642.632 C1564.71776,1645.26668 1572.89901,1646.584 1582.3284,1646.584 C1595.08579,1646.584 1605.00036,1643.77603 1612.0724,1638.16 C1619.14443,1632.54397 1622.6804,1623.63473 1622.6804,1611.432 C1622.6804,1604.35996 1620.73908,1598.60536 1616.8564,1594.168 C1612.97371,1589.73064 1607.87776,1586.05601 1601.5684,1583.144 C1595.25903,1580.23199 1588.0831,1577.66668 1580.0404,1575.448 C1571.99769,1573.22932 1563.7471,1570.76801 1555.2884,1568.064 C1546.82969,1565.35999 1538.5791,1562.03202 1530.5364,1558.08 C1522.49369,1554.12798 1515.31776,1548.92803 1509.0084,1542.48 C1502.69903,1536.03197 1497.60308,1527.98938 1493.7204,1518.352 C1489.83771,1508.71462 1487.8964,1496.82407 1487.8964,1482.68 C1487.8964,1471.30928 1490.18437,1460.21605 1494.7604,1449.4 C1499.33642,1438.58395 1506.06168,1428.94671 1514.9364,1420.488 C1523.81111,1412.02929 1534.69633,1405.26936 1547.5924,1400.208 C1560.48846,1395.14664 1575.25631,1392.616 1591.8964,1392.616 C1601.18711,1392.616 1610.23502,1393.34399 1619.0404,1394.8 C1627.84577,1396.25601 1636.20036,1398.40532 1644.1044,1401.248 C1652.00843,1404.09068 1659.39236,1407.48798 1666.2564,1411.44 C1673.12043,1415.39202 1679.25637,1419.86398 1684.6644,1424.856 L1667.1924,1457.512 Z M1791.668,1699 L1720.948,1699 L1720.948,1395.944 L1791.668,1395.944 L1791.668,1699 Z M1986.65561,1541.96 L2094.39961,1541.96 L2094.39961,1669.88 C2078.86886,1681.25072 2062.33303,1689.50131 2044.79161,1694.632 C2027.25018,1699.76269 2008.9117,1702.328 1989.77561,1702.328 C1964.81548,1702.328 1942.10904,1698.41071 1921.65561,1690.576 C1901.20217,1682.74129 1883.69568,1671.9254 1869.13561,1658.128 C1854.57553,1644.3306 1843.34364,1627.96809 1835.43961,1609.04 C1827.53557,1590.11191 1823.58361,1569.55478 1823.58361,1547.368 C1823.58361,1524.76522 1827.32757,1504.00009 1834.81561,1485.072 C1842.30364,1466.14391 1853.01554,1449.81607 1866.95161,1436.088 C1880.88767,1422.35993 1897.73551,1411.6827 1917.49561,1404.056 C1937.2557,1396.4293 1959.33815,1392.616 1983.74361,1392.616 C1996.36233,1392.616 2008.21822,1393.65599 2019.31161,1395.736 C2030.40499,1397.81601 2040.63156,1400.65865 2049.99161,1404.264 C2059.35165,1407.86935 2067.91423,1412.16798 2075.67961,1417.16 C2083.44498,1422.15202 2090.37824,1427.55997 2096.47961,1433.384 L2076.09561,1464.376 C2072.90626,1469.22936 2068.78096,1472.21066 2063.71961,1473.32 C2058.65825,1474.42934 2053.21563,1473.18135 2047.39161,1469.576 C2041.84491,1466.24798 2036.6103,1463.37068 2031.68761,1460.944 C2026.76491,1458.51732 2021.7383,1456.54134 2016.60761,1455.016 C2011.47691,1453.49066 2006.06897,1452.38134 2000.38361,1451.688 C1994.69824,1450.99466 1988.31964,1450.648 1981.24761,1450.648 C1968.07421,1450.648 1956.21832,1452.97064 1945.67961,1457.616 C1935.14089,1462.26136 1926.16231,1468.81329 1918.74361,1477.272 C1911.3249,1485.73071 1905.60496,1495.88794 1901.58361,1507.744 C1897.56225,1519.60006 1895.55161,1532.80793 1895.55161,1547.368 C1895.55161,1563.45341 1897.77025,1577.73594 1902.20761,1590.216 C1906.64496,1602.69606 1912.91956,1613.23462 1921.03161,1621.832 C1929.14365,1630.42938 1938.85022,1636.98131 1950.15161,1641.488 C1961.45299,1645.99469 1973.96754,1648.248 1987.69561,1648.248 C1996.15431,1648.248 2003.81557,1647.41601 2010.67961,1645.752 C2017.54364,1644.08799 2024.23424,1641.86935 2030.75161,1639.096 L2030.75161,1593.128 L2000.79961,1593.128 C1996.36225,1593.128 1992.89562,1591.94935 1990.39961,1589.592 C1987.90359,1587.23465 1986.65561,1584.25335 1986.65561,1580.648 L1986.65561,1541.96 Z M2396.92321,1395.944 L2396.92321,1699 L2360.31521,1699 C2354.90718,1699 2350.3659,1698.13334 2346.69121,1696.4 C2343.01652,1694.66666 2339.37656,1691.65069 2335.77121,1687.352 L2192.87521,1506.6 C2193.42988,1512.00803 2193.81121,1517.24264 2194.01921,1522.304 C2194.22721,1527.36536 2194.33121,1532.11464 2194.33121,1536.552 L2194.33121,1699 L2132.34721,1699 L2132.34721,1395.944 L2169.37121,1395.944 C2172.42189,1395.944 2174.9872,1396.08267 2177.06721,1396.36 C2179.14722,1396.63733 2181.0192,1397.15733 2182.68321,1397.92 C2184.34722,1398.68267 2185.94187,1399.75733 2187.46721,1401.144 C2188.99255,1402.53067 2190.72587,1404.40265 2192.66721,1406.76 L2336.81121,1588.76 C2336.11787,1582.93597 2335.63254,1577.28536 2335.35521,1571.808 C2335.07788,1566.33064 2334.93921,1561.16536 2334.93921,1556.312 L2334.93921,1395.944 L2396.92321,1395.944 Z" id="DESIGN"></path>
            </g>
        </g>
    </g>
</svg>