<?xml version="1.0" encoding="UTF-8"?>
<svg width="35px" height="25px" viewBox="0 0 35 25" version="1.1" xmlns="http://www.w3.org/2000/svg" xmlns:xlink="http://www.w3.org/1999/xlink">
    <!-- Generator: Sketch 51.3 (57544) - http://www.bohemiancoding.com/sketch -->
    <title>email</title>
    <desc>Created with Sketch.</desc>
    <defs></defs>
    <g id="Symbols" stroke="none" stroke-width="1" fill="none" fill-rule="evenodd">
        <g id="Desktop-/-Footer" transform="translate(-1080.000000, -41.000000)" fill="#E0E3E8" fill-rule="nonzero">
            <g id="Footer">
                <path d="M1114.0099,49.2325913 C1114.27396,49.0313213 1114.66667,49.2196062 1114.66667,49.5377426 L1114.66667,62.8150685 C1114.66667,64.5356022 1113.21094,65.9315068 1111.41667,65.9315068 L1083.25,65.9315068 C1081.45573,65.9315068 1080,64.5356022 1080,62.8150685 L1080,49.5442352 C1080,49.2196062 1080.38594,49.0378139 1080.65677,49.2390839 C1082.17344,50.3687928 1084.18438,51.803653 1091.09063,56.6146547 C1092.51927,57.614512 1094.92969,59.7181079 1097.33333,59.7051227 C1099.75052,59.7246005 1102.20833,57.5755565 1103.58281,56.6146547 C1110.48906,51.803653 1112.49323,50.3623002 1114.0099,49.2325913 Z M1097.33333,57.6210046 C1098.90417,57.6469749 1101.16563,55.7251712 1102.30312,54.9330765 C1111.28802,48.680722 1111.97187,48.1353453 1114.04375,46.5771261 C1114.43646,46.28496 1114.66667,45.8304795 1114.66667,45.3500285 L1114.66667,44.1164384 C1114.66667,42.3959047 1113.21094,41 1111.41667,41 L1083.25,41 C1081.45573,41 1080,42.3959047 1080,44.1164384 L1080,45.3500285 C1080,45.8304795 1080.23021,46.2784675 1080.62292,46.5771261 C1082.69479,48.1288527 1083.37865,48.680722 1092.36354,54.9330765 C1093.50104,55.7251712 1095.7625,57.6469749 1097.33333,57.6210046 Z" id="email"></path>
            </g>
        </g>
    </g>
</svg>