<?xml version="1.0" encoding="UTF-8"?>
<svg width="25px" height="25px" viewBox="0 0 25 25" version="1.1" xmlns="http://www.w3.org/2000/svg" xmlns:xlink="http://www.w3.org/1999/xlink">
    <!-- Generator: Sketch 51.3 (57544) - http://www.bohemiancoding.com/sketch -->
    <title>github</title>
    <desc>Created with Sketch.</desc>
    <defs></defs>
    <g id="Homepages" stroke="none" stroke-width="1" fill="none" fill-rule="evenodd">
        <g id="Mobile-BW-Homepage" transform="translate(-192.000000, -1425.000000)" fill="#E0E3E8" fill-rule="nonzero">
            <g id="github" transform="translate(192.000000, 1425.000000)">
                <path d="M22.3214286,0 L2.67857143,0 C1.19977679,0 0,1.19977679 0,2.67857143 L0,22.3214286 C0,23.8002232 1.19977679,25 2.67857143,25 L22.3214286,25 C23.8002232,25 25,23.8002232 25,22.3214286 L25,2.67857143 C25,1.19977679 23.8002232,0 22.3214286,0 Z M15.4743304,21.4118304 C15.0055804,21.4955357 14.8325893,21.2053571 14.8325893,20.9654018 C14.8325893,20.6640625 14.84375,19.1238839 14.84375,17.8794643 C14.84375,17.0089286 14.5535714,16.4564732 14.2131696,16.1662946 C16.2779018,15.9375 18.4542411,15.6529018 18.4542411,12.0870536 C18.4542411,11.0714286 18.0915179,10.5636161 17.5,9.91071429 C17.5948661,9.67075893 17.9129464,8.68303571 17.4051339,7.39955357 C16.6294643,7.15959821 14.8549107,8.3984375 14.8549107,8.3984375 C14.1183036,8.19196429 13.3203125,8.0859375 12.5334821,8.0859375 C11.7466518,8.0859375 10.9486607,8.19196429 10.2120536,8.3984375 C10.2120536,8.3984375 8.4375,7.15959821 7.66183036,7.39955357 C7.15401786,8.67745536 7.46651786,9.66517857 7.56696429,9.91071429 C6.97544643,10.5636161 6.69642857,11.0714286 6.69642857,12.0870536 C6.69642857,15.6361607 8.77790179,15.9375 10.8426339,16.1662946 C10.5747768,16.40625 10.3348214,16.8191964 10.2511161,17.4107143 C9.72098214,17.6506696 8.36495536,18.0636161 7.55580357,16.6350446 C7.04799107,15.7533482 6.1328125,15.6808036 6.1328125,15.6808036 C5.22879464,15.6696429 6.07142857,16.25 6.07142857,16.25 C6.67410714,16.5290179 7.09821429,17.6004464 7.09821429,17.6004464 C7.63950893,19.2578125 10.2287946,18.6997768 10.2287946,18.6997768 C10.2287946,19.4754464 10.2399554,20.7366071 10.2399554,20.9654018 C10.2399554,21.2053571 10.0725446,21.4955357 9.59821429,21.4118304 C5.91517857,20.1785714 3.33705357,16.6741071 3.33705357,12.578125 C3.33705357,7.45535714 7.25446429,3.56584821 12.3772321,3.56584821 C17.5,3.56584821 21.6517857,7.45535714 21.6517857,12.578125 C21.6573661,16.6741071 19.1573661,20.1841518 15.4743304,21.4118304 Z M10,18.0022321 C9.89397321,18.0245536 9.79352679,17.9799107 9.78236607,17.9073661 C9.77120536,17.8236607 9.84375,17.7511161 9.94977679,17.7287946 C10.0558036,17.7176339 10.15625,17.7622768 10.1674107,17.8348214 C10.1841518,17.9073661 10.1116071,17.9799107 10,18.0022321 Z M9.46986607,17.9520089 C9.46986607,18.0245536 9.38616071,18.0859375 9.27455357,18.0859375 C9.15178571,18.0970982 9.06808036,18.0357143 9.06808036,17.9520089 C9.06808036,17.8794643 9.15178571,17.8180804 9.26339286,17.8180804 C9.36941964,17.8069196 9.46986607,17.8683036 9.46986607,17.9520089 Z M8.70535714,17.890625 C8.68303571,17.9631696 8.57142857,17.9966518 8.4765625,17.9631696 C8.37053571,17.9408482 8.29799107,17.8571429 8.3203125,17.7845982 C8.34263393,17.7120536 8.45424107,17.6785714 8.54910714,17.7008929 C8.66071429,17.734375 8.73325893,17.8180804 8.70535714,17.890625 Z M8.01897321,17.5892857 C7.96875,17.6506696 7.86272321,17.6395089 7.77901786,17.5558036 C7.6953125,17.4832589 7.67299107,17.3772321 7.72879464,17.3270089 C7.77901786,17.265625 7.88504464,17.2767857 7.96875,17.3604911 C8.04129464,17.4330357 8.06919643,17.5446429 8.01897321,17.5892857 Z M7.51116071,17.0814732 C7.4609375,17.1149554 7.36607143,17.0814732 7.3046875,16.9977679 C7.24330357,16.9140625 7.24330357,16.8191964 7.3046875,16.7801339 C7.36607143,16.7299107 7.4609375,16.7689732 7.51116071,16.8526786 C7.57254464,16.9363839 7.57254464,17.0368304 7.51116071,17.0814732 Z M7.1484375,16.5401786 C7.09821429,16.5904018 7.01450893,16.5625 6.953125,16.5066964 C6.89174107,16.4341518 6.88058036,16.3504464 6.93080357,16.3113839 C6.98102679,16.2611607 7.06473214,16.2890625 7.12611607,16.3448661 C7.1875,16.4174107 7.19866071,16.5011161 7.1484375,16.5401786 Z M6.77455357,16.1272321 C6.75223214,16.1774554 6.6796875,16.1886161 6.61830357,16.1495536 C6.54575893,16.1160714 6.51227679,16.0546875 6.53459821,16.0044643 C6.55691964,15.9709821 6.61830357,15.9542411 6.69084821,15.9821429 C6.76339286,16.0212054 6.796875,16.0825893 6.77455357,16.1272321 Z" id="Shape"></path>
            </g>
        </g>
    </g>
</svg>