<?xml version="1.0" encoding="UTF-8"?>
<svg width="26px" height="23px" viewBox="0 0 26 23" version="1.1" xmlns="http://www.w3.org/2000/svg" xmlns:xlink="http://www.w3.org/1999/xlink">
    <!-- Generator: Sketch 51.3 (57544) - http://www.bohemiancoding.com/sketch -->
    <title>hamburger</title>
    <desc>Created with Sketch.</desc>
    <defs></defs>
    <g id="Case-Study" stroke="none" stroke-width="1" fill="none" fill-rule="evenodd">
        <g id="SOZO-Mobile-Case-Study" transform="translate(-334.000000, -23.000000)" fill="#E1E1E3" fill-rule="nonzero">
            <g id="Header-Copy">
                <path d="M334,26.1818182 L334,23.9090909 C334,23.4069886 334.484995,23 335.083333,23 L358.916667,23 C359.515005,23 360,23.4069886 360,23.9090909 L360,26.1818182 C360,26.6839205 359.515005,27.0909091 358.916667,27.0909091 L335.083333,27.0909091 C334.484995,27.0909091 334,26.6839205 334,26.1818182 Z M335.083333,36.5454545 L358.916667,36.5454545 C359.515005,36.5454545 360,36.1384659 360,35.6363636 L360,33.3636364 C360,32.8615341 359.515005,32.4545455 358.916667,32.4545455 L335.083333,32.4545455 C334.484995,32.4545455 334,32.8615341 334,33.3636364 L334,35.6363636 C334,36.1384659 334.484995,36.5454545 335.083333,36.5454545 Z M335.083333,46 L358.916667,46 C359.515005,46 360,45.5930114 360,45.0909091 L360,42.8181818 C360,42.3160795 359.515005,41.9090909 358.916667,41.9090909 L335.083333,41.9090909 C334.484995,41.9090909 334,42.3160795 334,42.8181818 L334,45.0909091 C334,45.5930114 334.484995,46 335.083333,46 Z" id="hamburger"></path>
            </g>
        </g>
    </g>
</svg>