<?xml version="1.0" encoding="UTF-8"?>
<svg width="26px" height="25px" viewBox="0 0 26 25" version="1.1" xmlns="http://www.w3.org/2000/svg" xmlns:xlink="http://www.w3.org/1999/xlink">
    <!-- Generator: Sketch 51.3 (57544) - http://www.bohemiancoding.com/sketch -->
    <title>linked_in</title>
    <desc>Created with Sketch.</desc>
    <defs></defs>
    <g id="Symbols" stroke="none" stroke-width="1" fill="none" fill-rule="evenodd">
        <g id="Desktop-/-Footer" transform="translate(-1191.000000, -41.000000)" fill="#E0E3E8" fill-rule="nonzero">
            <g id="Footer">
                <path d="M1215.14286,41 L1192.85134,41 C1191.82991,41 1191,41.8069349 1191,42.7975171 L1191,64.1339897 C1191,65.1245719 1191.82991,65.9315068 1192.85134,65.9315068 L1215.14286,65.9315068 C1216.16429,65.9315068 1217,65.1245719 1217,64.1339897 L1217,42.7975171 C1217,41.8069349 1216.16429,41 1215.14286,41 Z M1198.85804,62.369863 L1195.00446,62.369863 L1195.00446,50.4717466 L1198.86384,50.4717466 L1198.86384,62.369863 L1198.85804,62.369863 Z M1196.93125,48.8467466 C1195.69509,48.8467466 1194.69688,47.8839897 1194.69688,46.7041952 C1194.69688,45.5244007 1195.69509,44.5616438 1196.93125,44.5616438 C1198.16161,44.5616438 1199.16563,45.5244007 1199.16563,46.7041952 C1199.16563,47.8895548 1198.16741,48.8467466 1196.93125,48.8467466 Z M1213.30312,62.369863 L1209.44955,62.369863 L1209.44955,56.5821918 C1209.44955,55.2020548 1209.42054,53.4267979 1207.44732,53.4267979 C1205.43929,53.4267979 1205.1317,54.9293664 1205.1317,56.4820205 L1205.1317,62.369863 L1201.27813,62.369863 L1201.27813,50.4717466 L1204.975,50.4717466 L1204.975,52.0967466 L1205.02723,52.0967466 C1205.54375,51.1618151 1206.80312,50.1767979 1208.67768,50.1767979 C1212.57768,50.1767979 1213.30312,52.6421233 1213.30312,55.8476027 L1213.30312,62.369863 Z" id="linked_in"></path>
            </g>
        </g>
    </g>
</svg>