<?xml version="1.0" encoding="UTF-8"?>
<svg width="40px" height="39px" viewBox="0 0 40 39" version="1.1" xmlns="http://www.w3.org/2000/svg" xmlns:xlink="http://www.w3.org/1999/xlink">
    <!-- Generator: Sketch 51.3 (57544) - http://www.bohemiancoding.com/sketch -->
    <title>problem_icon</title>
    <desc>Created with Sketch.</desc>
    <defs></defs>
    <g id="Case-Study" stroke="none" stroke-width="1" fill="none" fill-rule="evenodd">
        <g id="SOZO-Desktop-Case-Study" transform="translate(-633.000000, -1989.000000)" fill="#D04141" fill-rule="nonzero">
            <g id="Overview" transform="translate(0.000000, 1818.000000)">
                <g id="Problems" transform="translate(120.000000, 158.000000)">
                    <g id="problem_icon">
                        <g transform="translate(513.951498, 13.000000)">
                            <path d="M39,19.5 C39,30.2719415 30.2687964,39 19.5,39 C8.73120363,39 0,30.2719415 0,19.5 C0,8.73434879 8.73120363,0 19.5,0 C30.2687964,0 39,8.73434879 39,19.5 Z M19.5,22.9411765 C17.5994981,22.9411765 16.0588235,24.481851 16.0588235,26.3823529 C16.0588235,28.2828549 17.5994981,29.8235294 19.5,29.8235294 C21.4005019,29.8235294 22.9411765,28.2828549 22.9411765,26.3823529 C22.9411765,24.481851 21.4005019,22.9411765 19.5,22.9411765 Z M16.060256,10.1743687 L16.6445076,20.8993687 C16.6718378,21.4012357 17.08628,21.7941176 17.588226,21.7941176 L21.4117742,21.7941176 C21.9137203,21.7941176 22.3281624,21.4012357 22.3554926,20.8993687 L22.9397443,10.1743687 C22.9692798,9.63228309 22.5382189,9.17647059 21.9960259,9.17647059 L17.0038956,9.17647059 C16.4617025,9.17647059 16.0307205,9.63228309 16.060256,10.1743687 Z" id="Glyph-Error"></path>
                        </g>
                    </g>
                </g>
            </g>
        </g>
    </g>
</svg>