<?xml version="1.0" encoding="UTF-8"?>
<svg width="40px" height="39px" viewBox="0 0 40 39" version="1.1" xmlns="http://www.w3.org/2000/svg" xmlns:xlink="http://www.w3.org/1999/xlink">
    <!-- Generator: Sketch 51.3 (57544) - http://www.bohemiancoding.com/sketch -->
    <title>solution_icon</title>
    <desc>Created with Sketch.</desc>
    <defs></defs>
    <g id="Case-Study" stroke="none" stroke-width="1" fill="none" fill-rule="evenodd">
        <g id="SOZO-Desktop-Case-Study" transform="translate(-1251.000000, -1989.000000)" fill="#5FA57D" fill-rule="nonzero">
            <g id="Overview" transform="translate(0.000000, 1818.000000)">
                <g id="Solutions" transform="translate(737.000000, 158.000000)">
                    <g id="Problems">
                        <g id="solution_icon" transform="translate(514.391931, 13.000000)">
                            <path d="M39,19.5 C39,30.2695827 30.2695827,39 19.5,39 C8.73041734,39 0,30.2695827 0,19.5 C0,8.73041734 8.73041734,0 19.5,0 C30.2695827,0 39,8.73041734 39,19.5 Z M17.2444476,29.8250927 L31.7121895,15.3573508 C32.2034637,14.8660766 32.2034637,14.0694859 31.7121895,13.5782117 L29.9330504,11.7990726 C29.4417762,11.3077198 28.6451855,11.3077198 28.1538327,11.7990726 L16.3548387,23.5979879 L10.8461673,18.0893165 C10.3548931,17.5980423 9.55830242,17.5980423 9.0669496,18.0893165 L7.28781048,19.8684556 C6.79653629,20.3597298 6.79653629,21.1563206 7.28781048,21.6475948 L15.4652298,29.8250141 C15.9565827,30.3163669 16.7530948,30.3163669 17.2444476,29.8250927 Z" id="Glyph-Success"></path>
                        </g>
                    </g>
                </g>
            </g>
        </g>
    </g>
</svg>